<svg width="79" height="46" viewBox="0 0 79 46" fill="none" xmlns="http://www.w3.org/2000/svg">
<path fill-rule="evenodd" clip-rule="evenodd" d="M74 0C76.7614 0 79 2.23858 79 5V31C79 33.7614 76.7614 36 74 36H62.7337L53.2585 45.4001L50.7885 36H5C2.23858 36 0 33.7614 0 31V5C0 2.23858 2.23858 0 5 0H74Z" fill="black"/>
<path d="M37.54 16V14.065H41.155V25H38.995V16H37.54ZM44.3996 25.105C44.0196 25.105 43.7046 24.99 43.4546 24.76C43.2146 24.52 43.0946 24.225 43.0946 23.875C43.0946 23.525 43.2146 23.235 43.4546 23.005C43.7046 22.765 44.0196 22.645 44.3996 22.645C44.7696 22.645 45.0746 22.765 45.3146 23.005C45.5546 23.235 45.6746 23.525 45.6746 23.875C45.6746 24.225 45.5546 24.52 45.3146 24.76C45.0746 24.99 44.7696 25.105 44.3996 25.105ZM47.7861 22.63C48.7461 21.83 49.5111 21.165 50.0811 20.635C50.6511 20.095 51.1261 19.535 51.5061 18.955C51.8861 18.375 52.0761 17.805 52.0761 17.245C52.0761 16.735 51.9561 16.335 51.7161 16.045C51.4761 15.755 51.1061 15.61 50.6061 15.61C50.1061 15.61 49.7211 15.78 49.4511 16.12C49.1811 16.45 49.0411 16.905 49.0311 17.485H46.9911C47.0311 16.285 47.3861 15.375 48.0561 14.755C48.7361 14.135 49.5961 13.825 50.6361 13.825C51.7761 13.825 52.6511 14.13 53.2611 14.74C53.8711 15.34 54.1761 16.135 54.1761 17.125C54.1761 17.905 53.9661 18.65 53.5461 19.36C53.1261 20.07 52.6461 20.69 52.1061 21.22C51.5661 21.74 50.8611 22.37 49.9911 23.11H54.4161V24.85H47.0061V23.29L47.7861 22.63ZM60.8993 25L58.0793 21.46V25H55.9793V13.9H58.0793V20.215L60.8693 16.69H63.5993L59.9393 20.86L63.6293 25H60.8993Z" fill="white"/>
<path d="M28.6891 13.3261C28.2738 12.9057 27.7806 12.5722 27.2377 12.3447C26.6949 12.1171 26.1131 12 25.5255 12C24.9379 12 24.3561 12.1171 23.8133 12.3447C23.2704 12.5722 22.7772 12.9057 22.3619 13.3261L21.4998 14.1982L20.6377 13.3261C19.7987 12.4773 18.6607 12.0004 17.4741 12.0004C16.2875 12.0004 15.1495 12.4773 14.3104 13.3261C13.4714 14.1749 13 15.3262 13 16.5266C13 17.727 13.4714 18.8782 14.3104 19.727L15.1725 20.5991L21.4998 27L27.8271 20.5991L28.6891 19.727C29.1047 19.3068 29.4344 18.8079 29.6593 18.2587C29.8842 17.7096 30 17.121 30 16.5266C30 15.9321 29.8842 15.3435 29.6593 14.7944C29.4344 14.2453 29.1047 13.7463 28.6891 13.3261Z" fill="white"/>
</svg>
