<svg width="116" height="20" viewBox="0 0 116 20" fill="none" xmlns="http://www.w3.org/2000/svg">
<path d="M9.0589 2.61934C9.37597 1.73685 10.624 1.73685 10.9411 2.61935L12.1739 6.05065C12.3128 6.43713 12.6738 6.69942 13.0843 6.71205L16.7286 6.82421C17.6659 6.85306 18.0516 8.04003 17.3102 8.61429L14.4278 10.8471C14.1032 11.0986 13.9653 11.523 14.0801 11.9173L15.0996 15.4179C15.3618 16.3182 14.3521 17.0518 13.5769 16.5242L10.5626 14.4729C10.2231 14.2418 9.77688 14.2418 9.43738 14.4729L6.42313 16.5242C5.64789 17.0518 4.63819 16.3182 4.90039 15.4179L5.91989 11.9173C6.03471 11.523 5.89682 11.0986 5.57217 10.8471L2.68976 8.61429C1.94844 8.04003 2.33411 6.85306 3.2714 6.82421L6.91573 6.71205C7.3262 6.69942 7.68721 6.43713 7.82607 6.05065L9.0589 2.61934Z" fill="black"/>
<path d="M33.0589 2.61934C33.376 1.73685 34.624 1.73685 34.9411 2.61935L36.1739 6.05065C36.3128 6.43713 36.6738 6.69942 37.0843 6.71205L40.7286 6.82421C41.6659 6.85306 42.0516 8.04003 41.3102 8.61429L38.4278 10.8471C38.1032 11.0986 37.9653 11.523 38.0801 11.9173L39.0996 15.4179C39.3618 16.3182 38.3521 17.0518 37.5769 16.5242L34.5626 14.4729C34.2231 14.2418 33.7769 14.2418 33.4374 14.4729L30.4231 16.5242C29.6479 17.0518 28.6382 16.3182 28.9004 15.4179L29.9199 11.9173C30.0347 11.523 29.8968 11.0986 29.5722 10.8471L26.6898 8.61429C25.9484 8.04003 26.3341 6.85306 27.2714 6.82421L30.9157 6.71205C31.3262 6.69942 31.6872 6.43713 31.8261 6.05065L33.0589 2.61934Z" fill="black"/>
<path d="M57.0589 2.61934C57.376 1.73685 58.624 1.73685 58.9411 2.61935L60.1739 6.05065C60.3128 6.43713 60.6738 6.69942 61.0843 6.71205L64.7286 6.82421C65.6659 6.85306 66.0516 8.04003 65.3102 8.61429L62.4278 10.8471C62.1032 11.0986 61.9653 11.523 62.0801 11.9173L63.0996 15.4179C63.3618 16.3182 62.3521 17.0518 61.5769 16.5242L58.5626 14.4729C58.2231 14.2418 57.7769 14.2418 57.4374 14.4729L54.4231 16.5242C53.6479 17.0518 52.6382 16.3182 52.9004 15.4179L53.9199 11.9173C54.0347 11.523 53.8968 11.0986 53.5722 10.8471L50.6898 8.61429C49.9484 8.04003 50.3341 6.85306 51.2714 6.82421L54.9157 6.71205C55.3262 6.69942 55.6872 6.43713 55.8261 6.05065L57.0589 2.61934Z" fill="black"/>
<path d="M105.059 2.61934C105.376 1.73685 106.624 1.73685 106.941 2.61935L108.174 6.05065C108.313 6.43713 108.674 6.69942 109.084 6.71205L112.729 6.82421C113.666 6.85306 114.052 8.04003 113.31 8.61429L110.428 10.8471C110.103 11.0986 109.965 11.523 110.08 11.9173L111.1 15.4179C111.362 16.3182 110.352 17.0518 109.577 16.5242L106.563 14.4729C106.223 14.2418 105.777 14.2418 105.437 14.4729L102.423 16.5242C101.648 17.0518 100.638 16.3182 100.9 15.4179L101.92 11.9173C102.035 11.523 101.897 11.0986 101.572 10.8471L98.6898 8.61429C97.9484 8.04003 98.3341 6.85306 99.2714 6.82421L102.916 6.71205C103.326 6.69942 103.687 6.43713 103.826 6.05065L105.059 2.61934Z" fill="black"/>
<path d="M81.0589 2.61934C81.376 1.73685 82.624 1.73685 82.9411 2.61935L84.1739 6.05065C84.3128 6.43713 84.6738 6.69942 85.0843 6.71205L88.7286 6.82421C89.6659 6.85306 90.0516 8.04003 89.3102 8.61429L86.4278 10.8471C86.1032 11.0986 85.9653 11.523 86.0801 11.9173L87.0996 15.4179C87.3618 16.3182 86.3521 17.0518 85.5769 16.5242L82.5626 14.4729C82.2231 14.2418 81.7769 14.2418 81.4374 14.4729L78.4231 16.5242C77.6479 17.0518 76.6382 16.3182 76.9004 15.4179L77.9199 11.9173C78.0347 11.523 77.8968 11.0986 77.5722 10.8471L74.6898 8.61429C73.9484 8.04003 74.3341 6.85306 75.2714 6.82421L78.9157 6.71205C79.3262 6.69942 79.6872 6.43713 79.8261 6.05065L81.0589 2.61934Z" fill="black"/>
</svg>
