<svg width="180" height="31" viewBox="0 0 180 31" fill="none" xmlns="http://www.w3.org/2000/svg">
<path d="M14.5589 2.61935C14.876 1.73685 16.124 1.73685 16.4411 2.61935L18.9962 9.73077C19.135 10.1172 19.496 10.3795 19.9065 10.3922L27.4594 10.6246C28.3967 10.6535 28.7824 11.8404 28.041 12.4147L22.0672 17.0422C21.7426 17.2937 21.6047 17.7181 21.7195 18.1124L23.8324 25.3675C24.0946 26.2678 23.0849 27.0014 22.3097 26.4738L16.0626 22.2224C15.7231 21.9913 15.2769 21.9913 14.9374 22.2224L8.69031 26.4738C7.91507 27.0014 6.90537 26.2678 7.16758 25.3675L9.28049 18.1124C9.39531 17.7181 9.25742 17.2937 8.93277 17.0422L2.95896 12.4147C2.21763 11.8404 2.6033 10.6535 3.54059 10.6246L11.0935 10.3922C11.504 10.3795 11.865 10.1172 12.0038 9.73077L14.5589 2.61935Z" fill="#6F764D"/>
<path d="M51.7589 2.61935C52.076 1.73685 53.324 1.73685 53.6411 2.61935L56.1962 9.73077C56.335 10.1172 56.696 10.3795 57.1065 10.3922L64.6594 10.6246C65.5967 10.6535 65.9824 11.8404 65.2411 12.4147L59.2672 17.0422C58.9426 17.2937 58.8047 17.7181 58.9195 18.1124L61.0324 25.3675C61.2946 26.2678 60.2849 27.0014 59.5097 26.4738L53.2626 22.2224C52.9231 21.9913 52.4769 21.9913 52.1374 22.2224L45.8903 26.4738C45.1151 27.0014 44.1054 26.2678 44.3676 25.3675L46.4805 18.1124C46.5953 17.7181 46.4574 17.2937 46.1328 17.0422L40.159 12.4147C39.4176 11.8404 39.8033 10.6535 40.7406 10.6246L48.2935 10.3922C48.704 10.3795 49.065 10.1172 49.2039 9.73077L51.7589 2.61935Z" fill="#6F764D"/>
<path d="M88.9589 2.61935C89.276 1.73685 90.524 1.73685 90.8411 2.61935L93.3961 9.73077C93.535 10.1172 93.896 10.3795 94.3065 10.3922L101.859 10.6246C102.797 10.6535 103.182 11.8404 102.441 12.4147L96.4672 17.0422C96.1426 17.2937 96.0047 17.7181 96.1195 18.1124L98.2324 25.3675C98.4946 26.2678 97.4849 27.0014 96.7097 26.4738L90.4626 22.2224C90.1231 21.9913 89.6769 21.9913 89.3374 22.2224L83.0903 26.4738C82.3151 27.0014 81.3054 26.2678 81.5676 25.3675L83.6805 18.1124C83.7953 17.7181 83.6574 17.2937 83.3328 17.0422L77.3589 12.4147C76.6176 11.8404 77.0033 10.6535 77.9406 10.6246L85.4935 10.3922C85.904 10.3795 86.265 10.1172 86.4038 9.73077L88.9589 2.61935Z" fill="#6F764D"/>
<path d="M126.159 2.61935C126.476 1.73685 127.724 1.73685 128.041 2.61935L130.596 9.73077C130.735 10.1172 131.096 10.3795 131.506 10.3922L139.059 10.6246C139.997 10.6535 140.382 11.8404 139.641 12.4147L133.667 17.0422C133.343 17.2937 133.205 17.7181 133.32 18.1124L135.432 25.3675C135.695 26.2678 134.685 27.0014 133.91 26.4738L127.663 22.2224C127.323 21.9913 126.877 21.9913 126.537 22.2224L120.29 26.4738C119.515 27.0014 118.505 26.2678 118.768 25.3675L120.88 18.1124C120.995 17.7181 120.857 17.2937 120.533 17.0422L114.559 12.4147C113.818 11.8404 114.203 10.6535 115.141 10.6246L122.694 10.3922C123.104 10.3795 123.465 10.1172 123.604 9.73077L126.159 2.61935Z" fill="#6F764D"/>
<path d="M163.359 2.61935C163.676 1.73685 164.924 1.73685 165.241 2.61935L167.796 9.73077C167.935 10.1172 168.296 10.3795 168.706 10.3922L176.259 10.6246C177.197 10.6535 177.582 11.8404 176.841 12.4147L170.867 17.0422C170.543 17.2937 170.405 17.7181 170.52 18.1124L172.632 25.3675C172.895 26.2678 171.885 27.0014 171.11 26.4738L164.863 22.2224C164.523 21.9913 164.077 21.9913 163.737 22.2224L157.49 26.4738C156.715 27.0014 155.705 26.2678 155.968 25.3675L158.08 18.1124C158.195 17.7181 158.057 17.2937 157.733 17.0422L151.759 12.4147C151.018 11.8404 151.403 10.6535 152.341 10.6246L159.893 10.3922C160.304 10.3795 160.665 10.1172 160.804 9.73077L163.359 2.61935Z" fill="#6F764D"/>
</svg>
